<svg width="67" height="27" viewBox="0 0 67 27" fill="none" xmlns="http://www.w3.org/2000/svg">
    <path d="M31.1144 1.80001H35.975V26.8H31.1144V1.80001Z" fill="#F9485C" />
    <path
        d="M53.7816 26.8C46.9809 26.8 42 20.9323 42 13.7494C42 6.66771 47.364 0.800004 54.5 0.800003C61.5881 0.800002 67 6.3642 67 13.7494V26.8H62.4981V21.8428C60.726 24.8778 57.613 26.8 53.7816 26.8ZM54.5 22.0451C58.9061 22.0451 62.2586 18.3019 62.2586 13.8C62.2586 9.24747 58.9061 5.50428 54.5 5.50428C50.1418 5.50428 46.7414 9.24747 46.7414 13.8C46.7414 18.3019 50.1418 22.0451 54.5 22.0451Z"
        fill="#F9485C" />
    <path
        d="M55.2184 0.800004C62.0191 0.800004 67 6.66771 67 13.8506C67 20.9323 61.636 26.8 54.5 26.8C47.4119 26.8 42 21.2358 42 13.8506V1.8H46.5L46.5019 5.7572C48.274 2.72218 51.387 0.800004 55.2184 0.800004ZM54.5 5.55487C50.0939 5.55487 46.7414 9.29806 46.7414 13.8C46.7414 18.3525 50.0939 22.0957 54.5 22.0957C58.8582 22.0957 62.2586 18.3525 62.2586 13.8C62.2586 9.29806 58.8582 5.55487 54.5 5.55487Z"
        fill="#F9485C" />
    <path
        d="M13.2184 26.8C20.0191 26.8 25 20.9323 25 13.7494C25 6.66771 19.636 0.800004 12.5 0.800003C5.41188 0.800002 6.45636e-07 6.3642 0 13.7494V26.8H4.50191V21.8428C6.27394 24.8778 9.38697 26.8 13.2184 26.8ZM12.5 22.0451C8.09387 22.0451 4.74139 18.3019 4.74139 13.8C4.74139 9.24747 8.09387 5.50428 12.5 5.50428C16.8582 5.50428 20.2586 9.24747 20.2586 13.8C20.2586 18.3019 16.8582 22.0451 12.5 22.0451Z"
        fill="#F9485C" />
    <path
        d="M11.7816 0.800004C4.98085 0.800004 0 6.66771 0 13.8506C0 20.9323 5.36399 26.8 12.5 26.8C19.5881 26.8 25 21.2358 25 13.8506V1.8H20.5L20.4981 5.7572C18.726 2.72218 15.613 0.800004 11.7816 0.800004ZM12.5 5.55487C16.9061 5.55487 20.2586 9.29806 20.2586 13.8C20.2586 18.3525 16.9061 22.0957 12.5 22.0957C8.14176 22.0957 4.74139 18.3525 4.74139 13.8C4.74139 9.29806 8.14176 5.55487 12.5 5.55487Z"
        fill="#F9485C" />
</svg>
    